<?xml version="1.0" encoding="UTF-8"?><<svg xmlns="http://www.w3.org/2000/svg" xmlns:xlink="http://www.w3.org/1999/xlink" viewBox="0 0 1920 1080">
  <defs>
    <style>
      .cls-1 {
        fill: #555555;
        font-size: 30px;
        font-weight: bold;
        pointer-events: none;
      }

      .cls-2, .cls-3, .cls-4, .cls-5, .cls-6 {
        transition: fill 0.5s ease, transform 0.5s ease;
        transform-origin: center;
        cursor: pointer;
        fill: #faf9f2;
      }

      .cls-2:hover, .cls-3:hover, .cls-4:hover, .cls-5:hover, .cls-6:hover {
      fill: #a5c5b7;
      transform: scale(1.09);
      }

      .cls-7 {
        isolation: isolate;
      }

    </style>
  </defs>
  <g class="cls-7">
    <g id="_레이어_1" data-name="레이어 1">
      <g>
          <g class="cls-6">
            <path stroke="#a5c5b7" stroke-width="6"  d="M670.52,743.18h-28l-27.11-29.78h-12.89l-28.19-31.74,4.78-23.44,6.89-5.89,23.22-.67-13.11-13.44-5.11-20.11,15.33-21.22-5.11-5.67v-13.89s21.3-20.78,21.2-21.33,0-8.78,0-8.78l22.35-21.44.78-9.22-17.67-10.89.22-17.89,25-24.11-.11-17.33,2-1.78v-8.33l-8.11-7.44v-44.11l6.11-4.67v-12.22l2.11-3.33v-10.67l41.67-27.65,16.89-4.24h19.56l15.11,9.33,13.56-6.22h26.56l32-62.56h13.56l9.78-9.78v-15.33l-4.22-4.56v-10.89l19-9.78v-13.11l-14.44-13.78v-10.78l3.44-3.56v-8.78l9.67-10.89h20.56l24.67-21.11h16.11l11.67,5.11,8,14.22,32.22,24.33v36.78l-6,29.89h-7.89l-5.89,6.67v10.33l-7.56-2.78h-6.89l-13.11,10v23.33l63.44,59.56-14.56,56.22v38.33l-40.78,10.33v9.22h-40.19l-40.74,26.63-34.37,34.07v12.89l16.59,16v9.48l-3.41,4.59h-32.15l-9.48,25.04v10.07l9.63,16.44v3.7l-16.67,16v6.52l-7.63-2.81-19.85,13.04v22.67h-12.44l-12.89,13.78v22.22l-57.11,31.19Z"/>
            <text class="cls-1" transform="translate(732.39 446.55)"><tspan x="0" y="0">유성구</tspan></text>
          </g>
      </g>
      <g>
          <g class="cls-4">
            <polygon stroke="#a5c5b7" stroke-width="6" points="1181.37 302.37 1181.37 291.07 1213.26 272.11 1213.26 254.92 1201.41 239.22 1190.44 239.22 1182.15 246.92 1168.81 246.92 1156.96 241.44 1156.96 227.51 1167.18 203.81 1167.18 191.81 1161.41 186.92 1136.22 186.92 1111.18 208.85 1106.15 240.55 1088.37 256.85 1064.81 256.85 1045.11 235.07 1014.89 235.07 994.15 247.66 979.04 247.66 964.44 240.44 956.55 240.44 950.67 247.11 950.67 257.44 943.11 254.66 936.22 254.66 923.11 264.66 923.11 288 986.55 347.55 972 403.77 972 442.11 931.22 452.44 931.22 461.55 942.44 461.55 964.67 500.66 964.67 516.89 982.93 516.89 987.36 524.49 1011.18 512.33 1018.89 498.11 1031.93 487.44 1054 487.44 1060.67 494.11 1060.67 506.55 1065.7 512.33 1075.33 512.33 1084.22 501.96 1089.41 501.96 1104.85 515.29 1108.96 508.03 1108.96 494.55 1111.93 490.11 1111.93 485.66 1104.85 480.48 1096.07 480.48 1068.37 449.96 1068.37 442.55 1078.44 424.77 1078.44 418.26 1082.59 409.37 1082.59 405.37 1077.85 397.37 1077.85 388.77 1119.63 358.55 1135.33 322.7 1135.33 313.37 1142.26 302.37 1181.37 302.37"/>
            <text class="cls-1" transform="translate(1007 355.71)"><tspan x="0" y="0">대덕구</tspan></text>
          </g>
      </g>
      <g>
        <g class="cls-3">
          <polygon stroke="#a5c5b7" stroke-width="6" points="1002.3 891.8 1008.09 897.37 1027.57 897.37 1027.57 902.92 1050.38 918.63 1078.83 918.63 1095.27 896.63 1095.27 883.44 1103.12 879.51 1116.46 879.51 1128.53 867.66 1128.53 849.51 1142.68 843.59 1155.79 830.11 1183.94 805.51 1188.9 794.03 1188.9 783.51 1176.38 767.44 1176.38 751.14 1169.64 742.18 1179.2 730.48 1176.46 725.89 1176.46 718.26 1191.42 710.18 1193.2 689.59 1200.09 677.81 1200.09 670.03 1185.12 657.59 1185.12 650.18 1200.83 650.18 1200.83 623.07 1195.49 618.7 1195.49 611.59 1210.09 591.44 1210.09 569.96 1213.2 565.74 1213.2 553.51 1208.23 547.29 1217.57 543.96 1222.38 533 1222.38 517.29 1245.94 517.29 1268.09 484.26 1268.09 443.51 1265.34 439.59 1265.34 431.44 1288.27 408.51 1340.01 408.51 1345.34 400.48 1345.34 383.37 1311.12 353.66 1311.12 328.03 1307.23 324.14 1298.23 324.14 1288.16 331.89 1270.68 331.89 1255.49 320.11 1247.27 320.11 1224.53 335.74 1224.53 351.74 1221.94 356.33 1221.94 362.11 1224.68 365.96 1224.68 369.51 1218.75 373.22 1202.16 361.37 1202.16 344.03 1181.34 302.33 1142.23 302.33 1135.31 313.33 1135.31 322.66 1119.6 358.51 1077.83 388.74 1077.83 397.33 1082.57 405.33 1082.57 409.33 1078.42 418.22 1078.42 424.74 1068.34 442.51 1068.34 449.92 1096.05 480.44 1104.83 480.44 1111.9 485.63 1111.9 490.07 1108.94 494.51 1108.94 508 1104.83 515.26 1089.38 501.92 1084.2 501.92 1075.31 512.29 1065.68 512.29 1060.64 506.51 1060.64 494.07 1053.97 487.4 1031.9 487.4 1018.86 498.07 1011.16 512.29 987.33 524.45 996.38 539.97 1007.79 539.97 1051.34 606.92 1070.31 611.22 1083.05 622.77 1083.05 633.29 1104.83 646.48 1104.83 651.81 1086.31 668.7 1071.64 668.7 1065.72 663.07 1052.38 663.07 1036.53 676.4 1036.53 693.14 1040.23 697.44 1040.23 701.14 1036.38 705 1036.38 709.29 1052.38 713.89 1047.34 731.37 1032.38 745.44 1032.38 756.85 1044.68 766.92 1044.68 773.14 1065.86 793.14 1065.86 802.77 1055.94 811.51 1055.94 822.77 1030.46 839.51 1020.97 839.51 1016.83 837 1016.83 849.14 1022.46 856.7 1022.46 877.89 1012.68 890.48 1004.09 890.48 1002.3 891.8"/>
          <text class="cls-1" transform="translate(1104.85 580.72)"><tspan x="0" y="0">동구</tspan></text>
        </g>
      </g>
      <g>
        <g class="cls-2">
          <polygon stroke="#a5c5b7" stroke-width="6" points="964.67 516.89 982.93 516.89 996.41 540.01 1007.81 540.01 1051.37 606.96 1070.33 611.26 1083.07 622.81 1083.07 633.33 1104.85 646.51 1104.85 651.85 1086.33 668.74 1071.67 668.74 1065.74 663.11 1052.41 663.11 1036.55 676.44 1036.55 693.18 1040.26 697.48 1040.26 701.18 1036.41 705.03 1036.41 709.33 1052.41 713.92 1047.37 731.4 1032.41 745.48 1032.41 756.89 1044.7 766.96 1044.7 773.18 1065.89 793.18 1065.89 802.81 1055.96 811.55 1055.96 822.81 1030.48 839.55 1021 839.55 1016.85 837.03 1016.85 849.18 1022.48 856.74 1022.48 877.92 1012.7 890.51 1004.11 890.51 1001.3 892.59 993.3 892.59 969.15 871.11 969.15 855.55 952.7 836.59 952.7 822.07 935.22 822.07 921.3 810.81 921.3 789.03 912.55 769.03 912.55 760 923.67 750.37 923.67 744.74 912.55 728.14 892 724.33 892 713.33 877.22 692.22 885.67 687 885.67 675.55 896 675.55 913.44 658.11 914.44 637 924.55 626.89 926 590.22 961.22 567.44 961.22 536.11 964.67 526.22 964.67 516.89"/>
          <text class="cls-1" transform="translate(945 722.87)"><tspan x="0" y="0">중구</tspan></text>
        </g>
      </g>
      <g>
        <g class="cls-5">
          <polygon stroke="#a5c5b7" stroke-width="6" points="670.52 743.18 658.63 754.37 658.63 805.48 681.59 823.77 681.59 835.03 689.67 843.85 704.26 843.85 706.7 849.26 713.67 849.26 720.55 839.11 727.81 839.11 755.81 861.85 755.81 868.29 750.85 877.85 750.85 883.63 762.26 895.03 783.81 895.03 772.7 910.81 772.7 944.07 778.18 950 795.89 950 799.74 946.81 799.74 936.29 831 908.81 831 888 869.81 863.11 869.81 839.26 861.15 824.66 873.96 811.92 873.96 799.7 864.55 748 864.55 736.89 876 727.89 887.33 727.89 892 724.33 892 713.33 877.22 692.22 885.67 687 885.67 675.55 896 675.55 913.44 658.11 914.44 637 924.55 626.89 926 590.22 961.22 567.44 961.22 536.11 964.67 526.22 964.67 500.66 942.44 461.55 931.22 461.55 891.04 461.66 850.3 488.29 815.93 522.37 815.93 535.26 832.52 551.26 832.52 560.74 829.11 565.33 796.96 565.33 787.48 590.37 787.48 600.44 797.11 616.89 797.11 620.59 780.44 636.59 780.44 643.11 772.81 640.29 752.96 653.33 752.96 676 740.52 676 727.63 689.77 727.63 712 670.52 743.18"/>
          <text class="cls-1" transform="translate(773.5 722.87)"><tspan x="0" y="0">서구</tspan></text>
        </g>  
      </g>
    </g>
  </g>
 y="0">서구</tspan></text>
        </g>  
      </g>
    </g>
  </g>
 y="0">서구</tspan></text>
        </g>  
      </g>
    </g>
  </g>
 y="0">서구</tspan></text>
        </g>  
      </g>
    </g>
  </g>
</svg>