<?xml version="1.0" encoding="UTF-8"?>
<svg id="_레이어_2" data-name="레이어 2" xmlns="http://www.w3.org/2000/svg" viewBox="0 0 430.22 627.1">
  <defs>
    <style>
      .cls-1 {
        fill: none;
        stroke: #000;
        stroke-miterlimit: 10;
      }

      .cls-2 {
        fill: #000;
        font-family: NotoSansKR-Bold-KSCpc-EUC-H, 'Noto Sans KR';
        font-size: 37.14px;
        font-weight: 700;
      }
    </style>
  </defs>
  <polygon class="cls-1" points="47.89 473.87 41.67 483.21 41.67 494.76 47.89 505.87 47.89 513.87 55.44 518.76 55.44 523.65 31.44 523.65 26.11 533.43 26.11 540.54 19.89 544.54 19.89 555.21 35.44 560.54 40.78 574.32 59.89 577.87 83.89 605.43 111.89 608.98 169.22 580.98 169.22 552.54 192.78 541.43 192.78 516.98 217.67 508.1 235.89 487.65 223 473.87 233.67 439.65 267.44 439.65 267.44 420.1 251.44 410.32 251.44 393.87 321.67 339.21 361.67 339.21 361.67 330.32 402.11 319.21 402.11 281.87 415 228.54 355.44 175.21 355.44 149.43 378.56 143.65 378.56 132.54 392.78 127.65 398.11 103.21 398.11 63.21 363.44 35.65 363.44 27.65 350.11 27.65 345.67 23.21 335 23.21 313.22 44.98 289.22 44.98 279 55.21 279 83.65 289.67 87.65 289.67 103.65 274.11 111.65 274.11 122.32 279.44 128.54 279.44 141.87 267.89 152.1 253.67 152.1 224.78 208.98 197.22 208.98 191 216.54 182.11 216.54 176.78 207.21 145.67 207.65 118.56 227.65 107.44 227.65 96.78 240.1 96.78 260.1 91 269.43 91 309.87 97.67 316.54 97.67 344.1 73.67 366.76 73.67 384.1 89.67 396.1 89.67 404.98 47.89 450.32 47.89 473.87"/>
  <text class="cls-2" transform="translate(166.33 333.98)"><tspan x="0" y="0">유성구</tspan></text>
</svg>