<?xml version="1.0" encoding="UTF-8"?>
<svg id="_레이어_2" data-name="레이어 2" xmlns="http://www.w3.org/2000/svg" viewBox="0 0 333.72 487.63">
  <defs>
    <style>
      .cls-1 {
        fill: none;
        stroke: #000;
        stroke-miterlimit: 10;
      }

      .cls-2 {
        fill: #000;
        font-family: NotoSansKR-Bold-KSCpc-EUC-H, 'Noto Sans KR';
        font-size: 37.14px;
        font-weight: 700;
      }
    </style>
  </defs>
  <polygon class="cls-1" points="31.83 283.41 21.69 290.89 21.69 347.48 44.5 362.89 44.5 376.22 50.13 380.67 69.39 380.67 81.54 380.67 84.8 373.85 95.46 373.85 115.02 395.19 115.02 420.67 124.8 429.26 139.61 429.26 128.35 446.15 128.35 473.11 137.39 480.81 157.69 480.81 157.69 465.7 189.69 445.26 189.69 420.67 225.54 398.74 225.54 370.3 216.35 361.11 228.06 349.41 228.06 326.44 222.28 322 222.28 294.74 215.46 287.93 215.46 277.56 226.35 266.67 244.06 270.15 244.06 251.48 230.72 244.81 230.72 233.26 264.94 205.26 264.94 181.7 273.39 177.26 273.39 137.7 308.06 119.48 308.06 84.81 311.76 79.48 311.76 69.26 311.76 48.81 292.65 13.63 241.61 13.63 171.39 68.3 171.39 84.74 187.39 94.52 187.39 114.07 153.61 114.07 142.94 148.3 155.83 162.07 137.61 182.52 112.72 191.41 112.72 215.85 89.17 226.96 89.17 255.41 31.83 283.41"/>
  <text class="cls-2" transform="translate(103.48 315.88)"><tspan x="0" y="0">서구</tspan></text>
</svg>