<?xml version="1.0" encoding="UTF-8"?>
<svg id="_레이어_2" data-name="레이어 2" xmlns="http://www.w3.org/2000/svg" viewBox="0 0 373.72 616.26">
  <defs>
    <style>
      .cls-1 {
        fill: none;
        stroke: #000;
        stroke-miterlimit: 10;
      }

      .cls-2 {
        fill: #000;
        font-family: NotoSansKR-Bold-KSCpc-EUC-H, 'Noto Sans KR';
        font-size: 37.14px;
        font-weight: 700;
      }
    </style>
  </defs>
  <polygon class="cls-1" points="156.43 16.48 196.43 16.48 217.17 50.11 217.17 72.04 232.57 81.52 237.31 75 237.31 44.78 265.17 29.37 282.35 41.81 299.54 41.81 314.35 31.74 322.06 38.26 322.06 62.48 352.28 89.22 352.28 112.93 341.02 118.85 294.2 118.85 278.2 138.41 278.2 189.96 262.2 218.41 234.94 218.41 234.94 239.7 225.31 248.63 225.31 288.93 216.57 293.67 207.69 309.67 207.69 317.37 215.98 320.33 215.98 341.07 197.02 347.59 197.02 355.3 211.83 364.78 211.83 375.44 204.72 391.44 204.72 406.26 189.31 406.26 189.31 427.59 189.31 439.44 189.31 458.41 201.17 469.07 201.17 486.85 144.28 534.85 144.28 555.59 134.2 564.48 114.65 564.48 114.65 578.7 98.06 600.63 69.02 600.63 51.83 586.41 51.83 575.74 26.94 575.74 45.91 563.89 45.91 541.37 38.2 526.56 57.17 526.56 76.13 512.93 76.13 498.11 83.83 490.41 83.83 476.19 53.02 443.59 53.02 429.96 70.5 412.48 70.5 400.93 58.35 396.19 58.35 366.56 80.87 356.48 91.54 356.48 97.46 362.41 108.13 362.41 121.76 350.56 121.76 335.74 100.43 327.44 100.43 313.81 88.24 305.52 73.76 305.52 31.69 239.7 10.72 229.67 10.72 222.26 21.76 222.26 50.2 189.81 79.09 189.81 79.09 205.81 87.31 214.04 97.31 214.04 109.31 205.37 122.65 214.26 127.98 205.37 127.98 185.81 86.65 155.15 86.65 140.85 99.09 127.59 99.09 92.04 133.31 68.93 156.43 16.48"/>
  <text class="cls-2" transform="translate(110.72 290.22)"><tspan x="0" y="0">동구</tspan></text>
</svg>