<?xml version="1.0" encoding="UTF-8"?>
<svg id="_레이어_2" data-name="레이어 2" xmlns="http://www.w3.org/2000/svg" viewBox="0 0 249.64 380">
  <defs>
    <style>
      .cls-1 {
        fill: none;
        stroke: #000;
        stroke-miterlimit: 10;
      }

      .cls-2 {
        fill: #000;
        font-family: NotoSansKR-Bold-KSCpc-EUC-H, 'Noto Sans KR';
        font-size: 37.14px;
        font-weight: 700;
      }
    </style>
  </defs>
  <polygon class="cls-1" points="99.6 12.26 99.6 22.48 95.9 27.81 95.9 62.48 61.23 80.7 61.23 120.26 52.79 124.7 52.79 148.26 18.56 176.26 18.56 187.81 31.9 194.48 31.9 213.15 54.12 213.15 63.23 228.26 48.34 242.48 48.34 254.93 63.23 264.7 63.23 294.04 73.68 302.93 90.12 302.93 90.12 317.59 105.23 330.04 105.23 348.26 122.79 368.26 139.01 368.41 157.97 356.56 157.97 334.04 150.27 319.22 169.23 319.22 188.19 305.59 188.19 290.78 195.9 283.07 195.9 268.85 165.08 236.26 165.08 222.63 182.56 205.15 182.56 193.59 170.42 188.85 170.42 159.22 192.94 149.15 203.6 149.15 209.53 155.07 220.19 155.07 233.82 143.22 233.82 128.41 212.49 120.11 212.49 106.48 200.31 98.19 185.82 98.19 143.75 32.37 122.79 22.33 122.79 14.93 120.05 12.26 99.6 12.26"/>
  <text class="cls-2" transform="translate(77.39 194.29)"><tspan x="0" y="0">중구</tspan></text>
</svg>