<?xml version="1.0" encoding="UTF-8"?>
<svg id="_레이어_2" data-name="레이어 2" xmlns="http://www.w3.org/2000/svg" viewBox="0 0 323.22 353.47">
  <defs>
    <style>
      .cls-1 {
        fill: none;
        stroke: #000;
        stroke-miterlimit: 10;
      }

      .cls-2 {
        fill: #000;
        font-family: NotoSansKR-Bold-KSCpc-EUC-H, 'Noto Sans KR';
        font-size: 37.14px;
        font-weight: 700;
      }
    </style>
  </defs>
  <polygon class="cls-1" points="63.48 67.81 49.26 72.7 49.26 83.81 26.15 89.59 26.15 115.37 85.7 168.7 72.81 222.04 72.81 259.37 32.37 270.48 32.37 279.37 43.41 279.37 62.52 314.56 62.52 335 82.96 335 85.7 337.67 96.74 337.67 125.19 305.22 154.07 305.22 154.07 321.22 162.3 329.44 172.3 329.44 184.3 320.78 197.63 329.67 202.96 320.78 202.96 301.22 161.63 270.56 161.63 256.26 174.07 243 174.07 207.44 208.3 184.33 231.41 131.89 271.41 131.89 271.41 114.11 300.3 99.44 300.3 79 291.85 67.81 275.41 67.81 270.96 75 257.19 75 248.74 67.81 248.74 52.33 257.63 41.22 257.63 22.56 249.19 18.11 219.41 18.11 202.52 42.11 202.52 67 185.63 84.33 160.3 84.33 144.3 67.89 122.96 62.56 95.41 75.89 75.41 75.89 63.48 67.81"/>
  <text class="cls-2" transform="translate(89.11 164.17)"><tspan x="0" y="0">대덕구</tspan></text>
</svg>